<svg width="52" height="47" viewBox="0 0 52 47" fill="none" xmlns="http://www.w3.org/2000/svg">
<path fill-rule="evenodd" clip-rule="evenodd" d="M9.59617 19.6364L21.8208 8.61659L23.342 9.98795L11.1175 21.0078L9.59617 19.6364Z" fill="#999999"/>
<path fill-rule="evenodd" clip-rule="evenodd" d="M13.6528 23.2932L25.8774 12.2734L27.3987 13.6447L15.1741 24.6646L13.6528 23.2932Z" fill="#999999"/>
<path fill-rule="evenodd" clip-rule="evenodd" d="M22.2734 31.0644L34.498 20.0445L36.0193 21.4159L23.7947 32.4357L22.2734 31.0644Z" fill="#999999"/>
<path fill-rule="evenodd" clip-rule="evenodd" d="M26.3301 34.7211L38.5546 23.7013L40.0759 25.0726L27.8513 36.0925L26.3301 34.7211Z" fill="#999999"/>
<path fill-rule="evenodd" clip-rule="evenodd" d="M26.33 34.7213C22.1104 38.5251 15.2842 38.5388 11.0833 34.7519C6.88237 30.965 6.89757 24.8115 11.1172 21.0077L9.59595 19.6364C4.53236 24.201 4.51411 31.5851 9.5552 36.1294C14.5963 40.6737 22.7877 40.6573 27.8513 36.0927L26.33 34.7213Z" fill="#999999"/>
<path fill-rule="evenodd" clip-rule="evenodd" d="M34.498 20.0444L36.0193 21.4158C39.9576 17.8655 39.9718 12.1223 36.051 8.58784C32.1301 5.0534 25.759 5.06619 21.8207 8.61641L23.3419 9.98777C26.4363 7.19831 31.4422 7.18826 34.5229 9.96533C37.6036 12.7424 37.5924 17.2549 34.498 20.0444Z" fill="#999999"/>
<path fill-rule="evenodd" clip-rule="evenodd" d="M13.6531 23.2937C10.84 25.8296 10.8298 29.9319 13.6304 32.4565C16.431 34.9811 20.9818 34.972 23.795 32.4361L22.2737 31.0647C20.3045 32.8398 17.1189 32.8462 15.1585 31.079C13.1981 29.3118 13.2052 26.4402 15.1744 24.6651L13.6531 23.2937Z" fill="#999999"/>
</svg>
