<svg width="22" height="22" viewBox="0 0 22 22" fill="none" xmlns="http://www.w3.org/2000/svg">
<path d="M6.99996 8.32605C6.99996 8.32605 7.99996 16.8321 9 16.8261C9.8128 16.8213 11.8762 16.8243 12.6204 16.8256C12.8024 16.8259 13.0004 16.8336 13.1268 16.7027C14.1368 15.6571 15 8.32002 15 8.32002M16 8.32002C16 8.32002 9.90524 8.32002 6 8.32002M9 7.82002C9 7.82002 9 6.82012 9.5 6.32002C10.5 5.82012 11.5 5.97336 11.8933 6.32002C12.5 6.82007 12.5 7.82002 12.5 7.82002M9 9.82007V13.8201M11 9.82007V13.8201M13 9.82007V13.8201" stroke="#1C4770"/>
<circle cx="11" cy="11" r="10.25" stroke="#1C4770" stroke-width="1.5"/>
</svg>
