<svg width="16" height="16" viewBox="0 0 16 16" fill="none" xmlns="http://www.w3.org/2000/svg">
<path fill-rule="evenodd" clip-rule="evenodd" d="M9.51547 9.88656C7.83288 11.5692 5.07453 11.5388 3.35455 9.81885C1.63456 8.09886 1.60424 5.34052 3.28684 3.65792C4.96944 1.97533 7.72778 2.00564 9.44777 3.72563C11.1678 5.44562 11.1981 8.20396 9.51547 9.88656ZM10.0568 11.5354C7.74735 13.2913 4.40018 13.0802 2.24669 10.9267C-0.0987548 8.58127 -0.140088 4.8199 2.15436 2.52545C4.44882 0.230993 8.21019 0.272327 10.5556 2.61777C12.709 4.77117 12.9202 8.11814 11.1646 10.4275L15.4488 14.7118L14.341 15.8196L10.0568 11.5354Z" fill="#999999"/>
</svg>
